<svg aria-hidden="true" style="position: absolute; width: 0; height: 0; overflow: hidden;" version="1.1" xmlns="http://www.w3.org/2000/svg" xmlns:xlink="http://www.w3.org/1999/xlink">
<defs>
<symbol id="icon-arrow-left" viewBox="0 0 32 32">
<path stroke-linejoin="round" stroke-linecap="round" stroke-miterlimit="4" stroke-width="2.666" d="M25.334 16h-18.668M16 25.334l-9.334-9.334 9.334-9.334"></path>
</symbol>
<symbol id="icon-arrow-right" viewBox="0 0 32 32">
<path stroke-linejoin="round" stroke-linecap="round" stroke-miterlimit="4" stroke-width="2.666" d="M6.666 16h18.668M16 25.334l9.334-9.334-9.334-9.334"></path>
</symbol>
<symbol id="icon-close" viewBox="0 0 32 32">
<path d="M23.734 10.304l-1.504-1.504-5.963 5.962-5.962-5.962-1.504 1.504 5.962 5.962-5.962 5.963 1.504 1.504 5.962-5.963 5.963 5.963 1.504-1.504-5.963-5.963 5.963-5.962z"></path>
</symbol>
<symbol id="icon-cross" viewBox="0 0 32 32">
<path d="M31.708 25.708c-0-0-0-0-0-0l-9.708-9.708 9.708-9.708c0-0 0-0 0-0 0.105-0.105 0.18-0.227 0.229-0.357 0.133-0.356 0.057-0.771-0.229-1.057l-4.586-4.586c-0.286-0.286-0.702-0.361-1.057-0.229-0.13 0.048-0.252 0.124-0.357 0.228 0 0-0 0-0 0l-9.708 9.708-9.708-9.708c-0-0-0-0-0-0-0.105-0.104-0.227-0.18-0.357-0.228-0.356-0.133-0.771-0.057-1.057 0.229l-4.586 4.586c-0.286 0.286-0.361 0.702-0.229 1.057 0.049 0.13 0.124 0.252 0.229 0.357 0 0 0 0 0 0l9.708 9.708-9.708 9.708c-0 0-0 0-0 0-0.104 0.105-0.18 0.227-0.229 0.357-0.133 0.355-0.057 0.771 0.229 1.057l4.586 4.586c0.286 0.286 0.702 0.361 1.057 0.229 0.13-0.049 0.252-0.124 0.357-0.229 0-0 0-0 0-0l9.708-9.708 9.708 9.708c0 0 0 0 0 0 0.105 0.105 0.227 0.18 0.357 0.229 0.356 0.133 0.771 0.057 1.057-0.229l4.586-4.586c0.286-0.286 0.362-0.702 0.229-1.057-0.049-0.13-0.124-0.252-0.229-0.357z"></path>
</symbol>
<symbol id="icon-equalizer" viewBox="0 0 32 32">
<path d="M14 4v-0.5c0-0.825-0.675-1.5-1.5-1.5h-5c-0.825 0-1.5 0.675-1.5 1.5v0.5h-6v4h6v0.5c0 0.825 0.675 1.5 1.5 1.5h5c0.825 0 1.5-0.675 1.5-1.5v-0.5h18v-4h-18zM8 8v-4h4v4h-4zM26 13.5c0-0.825-0.675-1.5-1.5-1.5h-5c-0.825 0-1.5 0.675-1.5 1.5v0.5h-18v4h18v0.5c0 0.825 0.675 1.5 1.5 1.5h5c0.825 0 1.5-0.675 1.5-1.5v-0.5h6v-4h-6v-0.5zM20 18v-4h4v4h-4zM14 23.5c0-0.825-0.675-1.5-1.5-1.5h-5c-0.825 0-1.5 0.675-1.5 1.5v0.5h-6v4h6v0.5c0 0.825 0.675 1.5 1.5 1.5h5c0.825 0 1.5-0.675 1.5-1.5v-0.5h18v-4h-18v-0.5zM8 28v-4h4v4h-4z"></path>
</symbol>
<symbol id="icon-arrow-up" viewBox="0 0 32 32">
<path d="M16 1l-15 15h9v16h12v-16h9z"></path>
</symbol>
<symbol id="icon-point-up" viewBox="0 0 32 32">
<path d="M30 19v-5c0-1.654-1.346-3-3-3-0.535 0-1.037 0.14-1.472 0.386-0.534-0.833-1.467-1.386-2.528-1.386-0.768 0-1.469 0.29-2 0.766-0.531-0.476-1.232-0.766-2-0.766-0.35 0-0.687 0.060-1 0.171v-7.171c0-1.654-1.346-3-3-3s-3 1.346-3 3v12.334l-5.501-2.932c-0.454-0.262-0.973-0.401-1.499-0.401-1.654 0-3 1.346-3 3 0 0.824 0.327 1.592 0.922 2.163 0.008 0.007 0.015 0.015 0.023 0.022l7.474 6.815h-1.419c-0.552 0-1 0.448-1 1v6c0 0.552 0.448 1 1 1h20c0.552 0 1-0.448 1-1v-6c0-0.552-0.448-1-1-1h-1.382l2.276-4.553c0.069-0.139 0.106-0.292 0.106-0.447zM28 27c0 0.552-0.448 1-1 1s-1-0.448-1-1 0.448-1 1-1 1 0.448 1 1zM28 18.764l-2.618 5.236h-11.995l-9.088-8.286c-0.193-0.19-0.299-0.443-0.299-0.714 0-0.551 0.449-1 1-1 0.171 0 0.332 0.041 0.479 0.122 0.017 0.010 0.033 0.020 0.051 0.029l7 3.732c0.31 0.165 0.684 0.156 0.985-0.025s0.485-0.506 0.485-0.857v-14c0-0.551 0.449-1 1-1s1 0.449 1 1v10c0 0.552 0.448 1 1 1s1-0.448 1-1c0-0.551 0.449-1 1-1s1 0.449 1 1c0 0.552 0.448 1 1 1s1-0.448 1-1c0-0.551 0.449-1 1-1s1 0.449 1 1v1c0 0.552 0.448 1 1 1s1-0.448 1-1c0-0.551 0.449-1 1-1s1 0.449 1 1v4.764z"></path>
</symbol>
</defs>
</svg>